<?xml version="1.0" encoding="UTF-8"?>
<svg xmlns="http://www.w3.org/2000/svg" width="256" height="256" viewBox="0 0 256 256">
  <defs>
    <linearGradient id="bg" x1="0" y1="0" x2="0" y2="1">
      <stop offset="0" stop-color="#0c6a78"/>
      <stop offset="1" stop-color="#024452"/>
    </linearGradient>
    <clipPath id="card">
      <rect x="0" y="0" width="256" height="256" rx="48" ry="48"/>
    </clipPath>
  </defs>

  <g clip-path="url(#card)">
    <rect x="0" y="0" width="256" height="256" fill="url(#bg)"/>

    <g transform="translate(35.1 16) scale(0.14953)">
      <g transform="translate(0 1498) scale(1 -1)" stroke="none">
        <path d="m 157,797 c -81,-81 -118,-161 -118,-253 0,-41 6,-76 22,-116 C 107,305 233,175 371,108 c 73,-36 128,-53 218,-66 25,-4 31,-4 56,-5 16,0 33,-1 39,-2 9,-1 13,-1 27,0 8,1 23,2 33,2 32,0 69,4 133,16 100,18 209,55 312,104 l 15,7 -3,5 c -11,19 -45,60 -72,88 -94,94 -207,162 -343,205 -103,33 -165,47 -238,52 -8,1 -24,2 -35,3 -11,2 -29,4 -39,4 -130,11 -213,41 -260,94 -29,33 -43,70 -46,120 0,14 6,62 12,81 1,4 -2,2 -23,-19 z" fill="#f8fafc"/>
        <path d="M 459,1258 C 421,1219 354,1136 310,1073 260,1001 216,920 196,862 c -5,-15 -11,-37 -11,-38 0,0 7,5 14,11 36,28 80,58 125,82 30,17 34,19 48,26 84,43 195,86 291,113 11,4 20,6 21,7 1,0 -1,1 -5,3 -110,39 -176,69 -190,83 -6,7 -13,24 -15,38 -2,16 -1,69 2,84 0,2 0,3 -1,3 0,0 -8,-7 -16,-16 z" fill="#f8fafc"/>
        <path d="m 136,577 c 17,-23 50,-54 75,-70 48,-31 86,-42 171,-50 10,0 27,-2 37,-3 10,-1 29,-3 42,-4 47,-4 137,-15 182,-23 107,-17 184,-43 210,-70 l 5,-5 v -7 c -2,-19 -27,-49 -45,-54 -6,-2 -9,-1 -29,11 -33,20 -84,38 -146,51 -47,11 -85,17 -207,35 -177,26 -220,39 -255,81 -23,27 -39,62 -47,101 -2,11 -3,17 -2,17 1,0 4,-5 9,-10 z" fill="#0c6a78"/>
        <path d="m 261,310 c 12,-6 33,-16 58,-25 108,-42 228,-75 321,-87 41,-6 95,-8 121,-4 23,3 24,3 28,-2 14,-16 17,-60 5,-71 -6,-4 -9,-5 -46,-4 -39,0 -48,1 -98,9 -142,22 -279,77 -363,144 -19,15 -55,51 -55,55 0,1 4,-2 10,-5 5,-3 14,-8 19,-10 z" fill="#0c6a78"/>
        <path d="m 988,267 c 37,-14 47,-61 19,-89 -10,-10 -26,-16 -40,-15 -33,3 -55,35 -47,66 4,19 20,34 38,40 7,2 23,1 30,-2 z" fill="#0c6a78"/>
        <path d="m 962.99995,237 c -9,-3 -13,-10 -13,-22 0,-11 7,-19 19,-20 10,-1 17,3 21,11 8,19 -8,37 -27,31 z" fill="#f8fafc"/>
      </g>
    </g>
  </g>
</svg>
